/* XPM */
static char *df49b3cc43e64578cc249ff2dcb2f9fc1LFjXWMzDewlbbqG[] = {
/* columns rows colors chars-per-pixel */
"32 32 6 1 ",
"  c #0E0C0C",
". c #241816",
"X c #42271E",
"o c #5A3D28",
"O c #705633",
"+ c #9C7B3D",
/* pixels */
"XoooooXX..oooX  .XXOOX.XoOoXOo. ",
"XooooooX..oooX  .XXOO..XoooXOo..",
"XooXooooX.oOoX  XXoOo.XoooXXOoX.",
"ooXXoOOoX.o+oX  XXoOX.oooXXoOoXX",
"ooXoooOOXXX+Oo  XXoOXXooo.XoooXX",
"oXXoooOOoXX+Oo  XoooXooo..oooX.X",
"XXooXXoOOoX+Oo  oooXoooX..oooX..",
"XXoX...oOoXOOo  ooXXooX..oooXX..",
"Xoo..X.oooXoOo  ooXXooX..oOoXX..",
"XOo.Xo.ooXXoOo  oXXXooX..oOoXX..",
"oOo.o.XOoXoooo  oXXXoooX.oOoXX .",
"oOO.oOOoXooooo  oXXXoooXXo+OXX .",
"oOO.XooXXoOooo  oXoXXoooXo+OXX  ",
"oOO..XXXoOOooO  XXooXXoooX+OXX  ",
"ooOX..XXOOoXoO. XXooXXoooX+OXX  ",
"ooOoXXXoOOoXo+. XXoooXXooXOOXX  ",
"oooooXXoOoXXo+..XXXooXXooXoOXX  ",
"ooXoooXoOXXXoOX.oXXoOooooXoOXX  ",
"ooXoooXoooXXXOX.oXXXOOoooXoOXX  ",
"ooXoooXoooXXXoXXoX.XoOOoXXooXX  ",
"ooXXoo.oooXXXoXXoX..XoOooXoooX  ",
"ooXXoo.XooXXXo.XooX..XoooXoooo  ",
"oXXXOo.XoooXXo .ooo...XoooXooo  ",
"oX.XOo..ooOXXX  Xooo..XoooXXoo  ",
"o..X+o..ooOoXX  XXOo...XooXXoo  ",
"X..X+o..XoOooX  XXOoX..XoOXXXo  ",
"...X+O..XoOooX  .XOooX.XoOoXXX  ",
"..Xo+O...ooooX  .XXooX.XX+oXXX  ",
".XXoOO...ooooX  ..Xooo.XX+OXXo  ",
".XXooO...XooXX  ..XXooXXX+OXXo  ",
"XXXooOX..XooXX  ..XXOoXXX+OXoo  ",
"XXooooX...ooXX  ..XoOoXXXOoXoo. "
};
