/* XPM */
static char *a8c8351980914c819977b28b3c7eb1b28LEEpdWvgrIcgwmV[] = {
/* columns rows colors chars-per-pixel */
"32 32 6 1 ",
"  c #2E1D1D",
". c #5D372F",
"X c #7D563D",
"o c #9F7B45",
"O c #BE9E45",
"+ c #DFCD88",
/* pixels */
" ooXXoooXXooXooX ...............",
" XoXXoXXXXooXXoX +++++++++++++++",
" XoXXoXXXXooXXXX.O++OOO+++OO++OO",
" XXXXXXXXXooXXXX.OO+OOOO++OoO+OO",
".XXXXXXXXXoXXXXX.OoOOOOOO+OoOOoO",
".XXXXXX.XXXXXXXX OoOoOOOo+oooOoO",
".XXXXXX.XXXXXXX. OoooOOOoOoooOoO",
".XXX.X..XX.XXXX. OoooOOooOoooooo",
".XX..X..X..XX.X. ooXoOOooOooXooo",
".XX.....X..XX.X. ooXooOoooooXooX",
" .X........XX... ooXooOoooooXooX",
" .X. .. ....X... ooXXoooXoooXoXX",
". .. .  .. .. . .XoXXoooXoooXoXX",
". .      .  .   .XoXXooXXooXXXXX",
".        .      .XoXXooXXooXXXXX",
".               .XXXXXoXXooXXXXX",
"                .XXXXXXXXoXXXXXX",
"                 XXXXXXXXXX.X.XX",
" ............... XXXXXXXXXX.X.XX",
"O+++++++++++++++OXXXXX.XXXX....X",
"oO+++++++OOO++OOoX.XXX..XXX....X",
"oO+OO+++OOOO+OOoXX.XXX..XXX.. ..",
"oOOoO+O+OOOo+OOoX..XXX..X.X.. ..",
"oOOoo+OOOOOoOOOoX..XX...X.X.. ..",
"oOoooOoOoOOoOOOoX..XX...X...  ..",
"oOoooOoOooOoOOooX .XX. .....  ..",
"oooooooOooooOOooX .X.. ... .  ..",
"XoooooooooooOOooX  . . ... .  ..",
"XoooooooXoooOOooX    .  ..    . ",
" ooXooooXooooOoo.    .  .       ",
" ooXooooXXoooooX                ",
" ooXXoooXXoooooX                "
};
