/* XPM */
static char *ede91fc924934d92c7afe872ca2e6caby6Rl89ueI0HGl5Wg[] = {
/* columns rows colors chars-per-pixel */
"32 32 5 1 ",
"  c #131119",
". c #2A191F",
"X c #563A2E",
"o c #725E3A",
"O c #908549",
/* pixels */
".oooXXXX.                ..XXooo",
".oooXXX.. .              ..XXooo",
".ooXoX... ..             ..XXXoo",
".OoXoo......             ...XXoo",
".OOXoo.X....             ...XXoo",
" OOXoo.X...              ...XXoo",
" OOoooXX...               ..XXoo",
" OOoOoXX...           .  ...XXoo",
" OOOOoX...            .  ...XXXo",
".OOOooX..             .  ...XXXo",
".OOOoXX.. .           .. ...XXXo",
".oOoXXX. ..           .. ...XXXo",
" OooX.X. ..            ....XXXXX",
" OooX... ..            ....XXXXo",
" OoXX.....             ....XXXXo",
".OoXX.X...              ....XoXo",
".OOXX.XX.               ....XoXo",
".OOoX.XX. .              ...Xooo",
".OOoX.XX. .              ...Xooo",
".OOoXXXX. .              ...Xooo",
".OOoXoXX...           .  ...Xooo",
".OOoXoX....           .  ...Xooo",
" OOoooX....           . ...XXXoo",
" OOoooX....           .....XXXoo",
" OOoOoX.X..           ...X.XXXoo",
" OOOOoX.X..           ...X.XXXXo",
" OOOoXXXX.            ...XXXoXXo",
" OOOoXXXX.            ...XXXoXXo",
" OOooXXX..            ...XXXooXo",
".OOoXXXX..             ...XXooXo",
".OOoXXXX..             ...XXoooo",
".OooXXXX..              ...XXooo"
};
